PathFileType	4	(X/Y/Z)	/Users/itak/Documents/Research/Walk-IL/dataset/trc/00289_00010.trc
DataRate	CameraRate	NumFrames	NumMarkers	Units	OrigDataRate	OrigDataStartFrame	OrigNumFrames
100.000000	100.000000	4	53	mm	100.000000	579	662
Frame#	Time	RPSI			LPSI			L3			STRN			T10			C7			CLAV			RBAK			LBAK			LSHO			LUPA			LAEL			LAOL			LWTS			LWPS			LFRA			LIFD			LHPS			LHTS			RSHO			RUPA			RAEL			RAOL			RWTS			RWPS			RFRA			RIFD			RHTS			RHPS			RBHD			LFHD			RFHD			LBHD			LHIP			RHIP			RASI			LASI			LKNE			LTHI			LANK			LTIP			LTOE			LMT1			LMT5			LHEE			RKNE			RTHI			RANK			RTIP			RTOE			RMT1			RMT5			RHEE			
		X1	Y1	Z1	X2	Y2	Z2	X3	Y3	Z3	X4	Y4	Z4	X5	Y5	Z5	X6	Y6	Z6	X7	Y7	Z7	X8	Y8	Z8	X9	Y9	Z9	X10	Y10	Z10	X11	Y11	Z11	X12	Y12	Z12	X13	Y13	Z13	X14	Y14	Z14	X15	Y15	Z15	X16	Y16	Z16	X17	Y17	Z17	X18	Y18	Z18	X19	Y19	Z19	X20	Y20	Z20	X21	Y21	Z21	X22	Y22	Z22	X23	Y23	Z23	X24	Y24	Z24	X25	Y25	Z25	X26	Y26	Z26	X27	Y27	Z27	X28	Y28	Z28	X29	Y29	Z29	X30	Y30	Z30	X31	Y31	Z31	X32	Y32	Z32	X33	Y33	Z33	X34	Y34	Z34	X35	Y35	Z35	X36	Y36	Z36	X37	Y37	Z37	X38	Y38	Z38	X39	Y39	Z39	X40	Y40	Z40	X41	Y41	Z41	X42	Y42	Z42	X43	Y43	Z43	X44	Y44	Z44	X45	Y45	Z45	X46	Y46	Z46	X47	Y47	Z47	X48	Y48	Z48	X49	Y49	Z49	X50	Y50	Z50	X51	Y51	Z51	X52	Y52	Z52	X53	Y53	Z53	

580	5.79	612.744384765625	980.3557739257812	852.8112182617188	661.0728149414062	988.9217529296875	1020.275329589844	628.4020385742188	1059.58154296875	945.8328247070312	395.0487670898438	1251.525146484375	1011.117248535156	650.6184692382812	1177.074096679688	948.0396118164062	622.1602783203125	1422.943481445312	986.22998046875	464.9408874511719	1346.699829101562	1005.905639648438	651.5712280273438	1288.4345703125	894.0584106445312	656.7171630859375	1378.8310546875	1081.205078125	580.4066772460938	1390.553588867188	1148.412109375	621.28759765625	1281.478515625	1223.984008789062	616.1446533203125	1094.0205078125	1284.560913085938	648.622802734375	1055.398803710938	1214.234008789062	490.7704772949219	906.5145263671875	1348.230834960938	550.6401977539062	895.3991088867188	1388.382568359375	597.2794189453125	1003.397766113281	1330.574340820312	454.5368957519531	740.8514404296875	1422.954833984375	529.0905151367188	817.0245361328125	1419.28466796875	464.5780334472656	829.0671997070312	1410.458740234375	528.209228515625	1415.516357421875	843.74609375	522.3458251953125	1363.083251953125	772.5191650390625	508.8653869628906	1105.773803710938	691.7825927734375	551.0410766601562	1082.35595703125	774.2799682617188	363.1348571777344	911.6302490234375	747.4644165039062	396.5633850097656	897.375732421875	668.422607421875	469.1471252441406	1044.72412109375	678.6026611328125	297.4407653808594	735.7455444335938	736.349365234375	297.12060546875	811.1360473632812	724.3933715820312	342.5110473632812	798.0572509765625	670.4288330078125	605.4791259765625	1587.112182617188	967.002197265625	414.5061645507812	1617.74365234375	1053.446044921875	432.2109069824219	1622.514282226562	962.89599609375	576.776611328125	1570.015625	1109.223022460938	622.2034912109375	952.2615966796875	1135.953857421875	481.3183898925781	937.0982055664062	786.0753173828125	392.2646484375	957.7919921875	888.7804565429688	474.4887084960938	966.4628295898438	1126.647094726562	513.010009765625	492.3992309570312	1149.531982421875	538.1968383789062	633.992919921875	1159.777099609375	558.8427734375	41.75289535522461	1112.146850585938	539.5783081054688	259.7746887207031	1138.328735351562	341.1879577636719	38.23903656005859	1120.244995117188	396.0260620117188	31.21160888671875	1061.167358398438	446.4071350097656	40.4447135925293	1162.400634765625	582.525634765625	37.46993637084961	1041.357177734375	318.4933776855469	500.2266540527344	870.8319702148438	377.3214416503906	747.7965698242188	827.77685546875	620.4481201171875	185.0511322021484	766.3097534179688	368.9271545410156	388.8446655273438	863.4781494140625	517.1026611328125	68.79447937011719	889.211181640625	577.3350830078125	101.4015197753906	898.3450317382812	549.1243286132812	107.0521926879883	784.1503295898438	678.4760131835938	219.6256561279297	788.1177978515625	
581	5.8	611.727294921875	980.50927734375	855.7612915039062	659.5888061523438	988.95556640625	1023.349609375	627.5751342773438	1059.952270507812	949.4561767578125	393.4209594726562	1251.516479492188	1013.456359863281	649.4497680664062	1177.215454101562	952.7075805664062	620.5368041992188	1423.056274414062	990.796630859375	463.2578735351562	1346.71435546875	1008.884887695312	650.961669921875	1288.524658203125	898.9273071289062	654.2013549804688	1378.895629882812	1086.092163085938	577.3239135742188	1390.624755859375	1152.451538085938	616.8680419921875	1281.52783203125	1228.733764648438	609.2059936523438	1094.619506835938	1290.469116210938	641.7919921875	1055.099853515625	1220.694458007812	481.244873046875	909.169921875	1354.801147460938	540.6728515625	897.63720703125	1395.296264648438	589.0440063476562	1004.658447265625	1337.109252929688	442.9132995605469	744.6782836914062	1430.981567382812	518.1873779296875	819.9666748046875	1426.990356445312	453.8547973632812	832.6072387695312	1417.619262695312	528.2178344726562	1415.5791015625	847.2997436523438	523.4483032226562	1363.28466796875	775.956298828125	513.2626953125	1106.080078125	694.5726318359375	553.5081787109375	1082.6611328125	778.0696411132812	365.2890625	912.8616333007812	747.9674072265625	400.1424865722656	898.0774536132812	669.8399658203125	473.41015625	1045.113647460938	680.8528442382812	298.3383178710938	737.5425415039062	736.4989624023438	298.8641357421875	812.9286499023438	724.1720581054688	345.1640014648438	799.2472534179688	671.176513671875	603.5557250976562	1587.504150390625	971.880615234375	411.3844909667969	1617.21923828125	1056.03125	430.1885070800781	1622.306640625	965.7250366210938	573.1129150390625	1569.90185546875	1113.701293945312	620.3597412109375	952.1124877929688	1138.860107421875	480.478271484375	937.3971557617188	788.6305541992188	391.1508483886719	958.0748901367188	891.131103515625	472.4626159667969	966.4362182617188	1129.206420898438	512.3314819335938	492.1811218261719	1150.857421875	537.1625366210938	633.7826538085938	1161.4619140625	558.8250732421875	41.75456237792969	1112.139282226562	539.33544921875	259.7144775390625	1138.916259765625	341.1310119628906	38.21579742431641	1120.23486328125	396.0459289550781	31.19557571411133	1061.179077148438	446.4024658203125	40.42643356323242	1162.407958984375	582.42041015625	37.56906890869141	1041.302124023438	317.3830871582031	500.2417602539062	873.2550659179688	376.3976440429688	747.937744140625	829.86083984375	614.2825927734375	177.1700897216797	774.9228515625	366.4014587402344	387.7456359863281	867.0462036132812	504.2222595214844	67.69152069091797	897.9135131835938	565.7307739257812	97.73440551757812	907.7081909179688	539.6673583984375	102.4620513916016	792.8629150390625	673.250244140625	209.9869689941406	797.0321655273438	
582	5.81	610.7153930664062	980.7618408203125	858.6159057617188	658.0946655273438	989.031494140625	1026.336059570312	626.6116333007812	1060.373168945312	952.93603515625	391.8753662109375	1251.490844726562	1015.885498046875	648.2490844726562	1177.360595703125	957.1737060546875	618.9541625976562	1423.168090820312	995.1682739257812	461.6424255371094	1346.704467773438	1011.860412597656	650.288818359375	1288.644897460938	903.5352172851562	651.8163452148438	1378.947631835938	1090.734619140625	574.4664306640625	1390.681274414062	1156.359619140625	612.7567749023438	1281.490234375	1233.208984375	602.5707397460938	1095.075073242188	1295.85107421875	635.0697021484375	1054.719604492188	1226.510375976562	471.9629821777344	911.806640625	1360.823608398438	531.006591796875	899.7489624023438	1401.580810546875	581.0940551757812	1005.743774414062	1343.02099609375	431.3815612792969	748.5100708007812	1438.3525390625	507.4929809570312	822.760986328125	1433.9423828125	443.3768615722656	836.1421508789062	1424.21142578125	528.0685424804688	1415.643188476562	850.7882690429688	524.259765625	1363.488159179688	779.3505249023438	517.2119750976562	1106.369262695312	697.511962890625	555.7566528320312	1082.981079101562	781.8583984375	367.5682067871094	913.6709594726562	748.5145874023438	403.7180786132812	898.6011962890625	671.3643798828125	477.3850402832031	1045.444091796875	683.2678833007812	299.8577575683594	738.7891845703125	736.6614379882812	301.020751953125	814.1821899414062	724.1212768554688	348.1002807617188	800.111572265625	671.9855346679688	601.6734008789062	1587.86376953125	976.532470703125	408.4087829589844	1616.73486328125	1058.503784179688	428.2336120605469	1622.095581054688	968.4351196289062	569.6046142578125	1569.80419921875	1117.96240234375	618.4967041015625	951.9830322265625	1141.664184570312	479.6924133300781	937.7611694335938	791.0590209960938	390.0459899902344	958.365234375	893.3572998046875	470.5013427734375	966.3245239257812	1131.682983398438	511.5986938476562	491.9568176269531	1152.125244140625	536.0712890625	633.5828857421875	1163.093017578125	558.8013916015625	41.76462173461914	1112.136840820312	539.0728759765625	259.6804504394531	1139.48681640625	341.0773315429688	38.19022750854492	1120.22802734375	396.05615234375	31.16881561279297	1061.17919921875	446.3902893066406	40.41494369506836	1162.40478515625	582.3211059570312	37.66630172729492	1041.249877929688	316.6907958984375	500.1787109375	875.3975830078125	375.6476745605469	748.0597534179688	831.6817016601562	607.9306030273438	169.1146087646484	783.2935791015625	364.1967468261719	386.5866088867188	870.2670288085938	491.2666625976562	66.81343078613281	906.0731201171875	553.978271484375	94.14053344726562	916.6348266601562	530.0379638671875	97.92786407470703	801.1843872070312	667.83203125	200.0123443603516	805.7764282226562	
583	5.82	609.7245483398438	981.1082763671875	861.3822631835938	656.5943603515625	989.13916015625	1029.244750976562	625.5255737304688	1060.804931640625	956.2764282226562	390.3906860351562	1251.456665039062	1018.390625	647.0170288085938	1177.50390625	961.416748046875	617.4111938476562	1423.278686523438	999.3504638671875	460.0772705078125	1346.678955078125	1014.816955566406	649.5557861328125	1288.795288085938	907.8935546875	649.5513305664062	1378.985717773438	1095.1435546875	571.8096313476562	1390.728271484375	1160.139770507812	608.915771484375	1281.371459960938	1237.421264648438	596.2352294921875	1095.39404296875	1300.716918945312	628.499267578125	1054.273559570312	1231.701293945312	462.9392700195312	914.4164428710938	1366.287719726562	521.6500854492188	901.7296752929688	1407.231201171875	573.4415893554688	1006.660278320312	1348.31640625	419.9492797851562	752.3416748046875	1445.039428710938	497.0105895996094	825.4077758789062	1440.13427734375	433.1478881835938	839.6568603515625	1430.203002929688	527.7673950195312	1415.714233398438	854.2025756835938	524.792236328125	1363.692993164062	782.689453125	520.6871948242188	1106.640502929688	700.5784912109375	557.7520141601562	1083.3173828125	785.6348876953125	369.968994140625	914.0386352539062	749.123779296875	407.2974243164062	898.9208374023438	672.9833984375	481.0390625	1045.706420898438	685.8209838867188	301.9728088378906	739.454833984375	736.8389282226562	303.5589904785156	814.8712158203125	724.2256469726562	351.3251647949219	800.6229248046875	672.8543090820312	599.83203125	1588.197998046875	980.957275390625	405.578369140625	1616.298828125	1060.872680664062	426.3487548828125	1621.890258789062	971.0300903320312	566.2620849609375	1569.734252929688	1122.00830078125	616.615966796875	951.8632202148438	1144.376098632812	478.9660034179688	938.1915283203125	793.3718872070312	388.959716796875	958.6654663085938	895.4550170898438	468.6456298828125	966.1141967773438	1134.096313476562	510.8174133300781	491.722412109375	1153.333129882812	534.9181518554688	633.3881225585938	1164.6787109375	558.77197265625	41.78303146362305	1112.136962890625	538.7780151367188	259.6508178710938	1140.039306640625	341.0301208496094	38.16619110107422	1120.228881835938	396.0544128417969	31.13118553161621	1061.16650390625	446.3685607910156	40.40998077392578	1162.386474609375	582.2334594726562	37.76021575927734	1041.197998046875	316.38232421875	500.0435485839844	877.2725830078125	375.0490112304688	748.1859741210938	833.2728271484375	601.398193359375	160.9508209228516	791.4461669921875	362.2961120605469	385.3691101074219	873.173828125	478.3326416015625	66.15254974365234	913.7250366210938	542.1268310546875	90.63887023925781	925.129150390625	520.2897338867188	93.48667907714844	809.1386108398438	662.2000122070312	189.7873382568359	814.36083984375	
